<?xml version="1.0" standalone="no"?><!DOCTYPE svg PUBLIC "-//W3C//DTD SVG 1.1//EN" "http://www.w3.org/Graphics/SVG/1.1/DTD/svg11.dtd"><svg t="1705737270788" class="icon" viewBox="0 0 1024 1024" version="1.1" xmlns="http://www.w3.org/2000/svg" p-id="2350" xmlns:xlink="http://www.w3.org/1999/xlink" width="128" height="128"><path d="M512 179.2l390.4 627.2H128l384-627.2m0-64c-19.2 0-44.8 12.8-51.2 32l-390.4 627.2c-25.6 44.8 6.4 96 51.2 96H896c51.2 0 83.2-57.6 51.2-96l-384-627.2c-6.4-19.2-32-32-51.2-32z" fill="#ffffff" p-id="2351"></path><path d="M512 640c-19.2 0-32-12.8-32-32v-192c0-19.2 12.8-32 32-32s32 12.8 32 32v192c0 19.2-12.8 32-32 32z" fill="#ffffff" p-id="2352"></path><path d="M512 723.2m-32 0a32 32 0 1 0 64 0 32 32 0 1 0-64 0Z" fill="#ffffff" p-id="2353"></path></svg>